<svg xmlns="http://www.w3.org/2000/svg" viewBox="0 0 800 520" role="img" aria-label="Delivery performance dashboard">
  <rect width="800" height="520" fill="#f6f9fd"/>
  <rect x="45" y="45" width="710" height="430" rx="22" fill="#ffffff" stroke="#dbe3ef" stroke-width="4"/>
  <rect x="70" y="70" width="660" height="58" rx="14" fill="#143a6f"/>
  <text x="120" y="107" font-family="Arial, sans-serif" font-size="24" fill="#ffffff">AutoRush AI Dashboard</text>
  <g>
    <rect x="80" y="155" width="190" height="112" rx="16" fill="#eef4fc"/>
    <text x="110" y="196" font-family="Arial, sans-serif" font-size="18" fill="#5c667a">Avg. Delivery Time</text>
    <text x="110" y="235" font-family="Arial, sans-serif" font-size="38" font-weight="700" fill="#143a6f">28 min</text>
  </g>
  <g>
    <rect x="305" y="155" width="190" height="112" rx="16" fill="#eefbf3"/>
    <text x="335" y="196" font-family="Arial, sans-serif" font-size="18" fill="#5c667a">On-Time Rate</text>
    <text x="335" y="235" font-family="Arial, sans-serif" font-size="38" font-weight="700" fill="#1f8f5f">96%</text>
  </g>
  <g>
    <rect x="530" y="155" width="190" height="112" rx="16" fill="#fff6ea"/>
    <text x="560" y="196" font-family="Arial, sans-serif" font-size="18" fill="#5c667a">Secure Deliveries</text>
    <text x="560" y="235" font-family="Arial, sans-serif" font-size="38" font-weight="700" fill="#cc7c14">99%</text>
  </g>
  <g>
    <rect x="80" y="295" width="640" height="140" rx="18" fill="#f9fbfe" stroke="#e2eaf3"/>
    <polyline points="110,390 195,360 280,378 365,312 450,328 535,260 620,285 690,225" fill="none" stroke="#2d63ad" stroke-width="8" stroke-linecap="round" stroke-linejoin="round"/>
    <g fill="#ffb347">
      <circle cx="110" cy="390" r="7"/><circle cx="195" cy="360" r="7"/><circle cx="280" cy="378" r="7"/>
      <circle cx="365" cy="312" r="7"/><circle cx="450" cy="328" r="7"/><circle cx="535" cy="260" r="7"/>
      <circle cx="620" cy="285" r="7"/><circle cx="690" cy="225" r="7"/>
    </g>
    <text x="108" y="332" font-family="Arial, sans-serif" font-size="18" fill="#5c667a">Efficiency improvement over time</text>
  </g>
</svg>
