<svg xmlns="http://www.w3.org/2000/svg" viewBox="0 0 800 520" role="img" aria-label="Busy city with delayed deliveries">
  <defs>
    <linearGradient id="sky" x1="0" y1="0" x2="0" y2="1">
      <stop offset="0%" stop-color="#d9ecff"/>
      <stop offset="100%" stop-color="#f8fbff"/>
    </linearGradient>
  </defs>
  <rect width="800" height="520" fill="url(#sky)"/>
  <rect y="360" width="800" height="160" fill="#dfe6ef"/>
  <rect y="395" width="800" height="70" fill="#37475a"/>
  <rect y="425" width="800" height="8" fill="#f4cf67" opacity="0.8"/>
  <g fill="#a5b4c5">
    <rect x="60" y="120" width="110" height="240" rx="4"/>
    <rect x="185" y="150" width="120" height="210" rx="4"/>
    <rect x="320" y="95" width="135" height="265" rx="4"/>
    <rect x="470" y="170" width="95" height="190" rx="4"/>
    <rect x="585" y="130" width="150" height="230" rx="4"/>
  </g>
  <g fill="#f5f9ff">
    <g>
      <rect x="78" y="145" width="18" height="18"/><rect x="106" y="145" width="18" height="18"/><rect x="134" y="145" width="18" height="18"/>
      <rect x="78" y="175" width="18" height="18"/><rect x="106" y="175" width="18" height="18"/><rect x="134" y="175" width="18" height="18"/>
    </g>
    <g>
      <rect x="205" y="178" width="20" height="20"/><rect x="236" y="178" width="20" height="20"/><rect x="267" y="178" width="20" height="20"/>
      <rect x="205" y="210" width="20" height="20"/><rect x="236" y="210" width="20" height="20"/><rect x="267" y="210" width="20" height="20"/>
    </g>
    <g>
      <rect x="344" y="122" width="22" height="22"/><rect x="378" y="122" width="22" height="22"/><rect x="412" y="122" width="22" height="22"/>
      <rect x="344" y="157" width="22" height="22"/><rect x="378" y="157" width="22" height="22"/><rect x="412" y="157" width="22" height="22"/>
      <rect x="344" y="192" width="22" height="22"/><rect x="378" y="192" width="22" height="22"/><rect x="412" y="192" width="22" height="22"/>
    </g>
  </g>
  <g>
    <rect x="90" y="335" width="160" height="38" rx="19" fill="#ffb347"/>
    <text x="170" y="360" text-anchor="middle" font-family="Arial, sans-serif" font-size="20" fill="#1d2433">High Demand</text>
  </g>
  <g>
    <rect x="350" y="330" width="170" height="46" rx="14" fill="#ffffff" stroke="#d7e1ee"/>
    <circle cx="390" cy="353" r="17" fill="#143a6f"/>
    <path d="M390 343v12l8 6" fill="none" stroke="#fff" stroke-width="3" stroke-linecap="round"/>
    <text x="455" y="360" text-anchor="middle" font-family="Arial, sans-serif" font-size="18" fill="#143a6f">Delivery Delay</text>
  </g>
  <g>
    <rect x="570" y="348" width="130" height="34" rx="17" fill="#f26d6d"/>
    <text x="635" y="370" text-anchor="middle" font-family="Arial, sans-serif" font-size="18" fill="#fff">Traffic</text>
  </g>
  <g transform="translate(255 382)">
    <rect x="0" y="0" width="136" height="42" rx="12" fill="#5b86d8"/>
    <rect x="16" y="10" width="62" height="20" rx="4" fill="#cfe0ff"/>
    <circle cx="34" cy="44" r="11" fill="#27384a"/>
    <circle cx="102" cy="44" r="11" fill="#27384a"/>
  </g>
</svg>
