<svg xmlns="http://www.w3.org/2000/svg" viewBox="0 0 800 520" role="img" aria-label="Autonomous delivery car">
  <defs>
    <linearGradient id="bg" x1="0" y1="0" x2="1" y2="1">
      <stop offset="0%" stop-color="#e8f3ff"/>
      <stop offset="100%" stop-color="#fdfefe"/>
    </linearGradient>
    <linearGradient id="car" x1="0" y1="0" x2="1" y2="0">
      <stop offset="0%" stop-color="#153d73"/>
      <stop offset="100%" stop-color="#2d63ad"/>
    </linearGradient>
  </defs>
  <rect width="800" height="520" fill="url(#bg)"/>
  <rect y="390" width="800" height="130" fill="#dbe3ef"/>
  <rect y="430" width="800" height="55" fill="#3d4856"/>
  <path d="M120 390h560" stroke="#f7d767" stroke-width="8" stroke-dasharray="28 18" opacity="0.9"/>
  <g transform="translate(120 205)">
    <path d="M85 120h330c30 0 54-24 54-54v-8c0-18-15-33-33-33h-76l-40-54c-9-12-23-19-38-19H146c-20 0-38 11-47 28L62 34H28C12 34 0 46 0 62v58c0 11 9 20 20 20h17" fill="url(#car)"/>
    <rect x="116" y="10" width="163" height="82" rx="20" fill="#88b6f2" opacity="0.95"/>
    <rect x="288" y="24" width="104" height="58" rx="14" fill="#a9cbf8" opacity="0.9"/>
    <rect x="264" y="96" width="112" height="62" rx="10" fill="#102944"/>
    <rect x="279" y="111" width="82" height="18" rx="6" fill="#dff0ff"/>
    <text x="320" y="123" text-anchor="middle" font-family="Arial, sans-serif" font-size="12" fill="#153d73">SECURE DELIVERY</text>
    <circle cx="110" cy="144" r="34" fill="#1c2630"/>
    <circle cx="110" cy="144" r="16" fill="#c7d2df"/>
    <circle cx="376" cy="144" r="34" fill="#1c2630"/>
    <circle cx="376" cy="144" r="16" fill="#c7d2df"/>
    <path d="M180 6h115c12 0 23 5 30 15l33 45H118l22-41c8-15 23-24 40-24z" fill="#d8ebff" opacity="0.95"/>
  </g>
  <g>
    <circle cx="640" cy="142" r="56" fill="#ffffff" stroke="#d7e3f2" stroke-width="4"/>
    <path d="M640 110v34l20 18" fill="none" stroke="#153d73" stroke-width="7" stroke-linecap="round"/>
    <circle cx="640" cy="142" r="7" fill="#153d73"/>
    <text x="640" y="218" text-anchor="middle" font-family="Arial, sans-serif" font-size="20" fill="#153d73">Faster route planning</text>
  </g>
  <g>
    <circle cx="173" cy="103" r="12" fill="#ffb347"/>
    <circle cx="214" cy="80" r="8" fill="#ffb347" opacity="0.8"/>
    <circle cx="252" cy="102" r="6" fill="#ffb347" opacity="0.7"/>
  </g>
</svg>
